<svg fill="none" height="130" viewBox="0 0 350 130" width="350" xmlns="http://www.w3.org/2000/svg" xmlns:xlink="http://www.w3.org/1999/xlink"><clipPath id="a"><path d="m0 0h350v130h-350z"/></clipPath><g clip-path="url(#a)"><path d="m129.354 108.659c-19.638-4.472-39.861-11.877-52.426-27.618-11.187-14.014-14.628-32.441-20.289-49.455-3.852-11.569-9.678-23.461-18.388-31.586h-38.251v130h197.26c-3.083-2.151-6.331-4.057-9.712-5.7-18.123-8.787-38.556-11.169-58.194-15.641z" fill="#c9e3fc"/><path d="m350 0h-160.534c6.647 8.87 9.5 20.516 4.633 30.234-3.477 6.948-10.374 12.139-12.2 19.693-3.168 13.158 10.611 24.273 23.571 28.173 15.4 4.637 31.778 4.575 47.863 4.347s32.419-.557 47.963 3.586 30.486 13.464 37.548 27.918c2.406 5.009 3.665 10.492 3.685 16.049h7.471z" fill="#58afff"/><path d="m301.3 86.036c-15.544-4.142-31.878-3.814-47.963-3.586s-32.459.29-47.863-4.347c-12.96-3.9-26.74-15.018-23.567-28.176 1.821-7.554 8.718-12.744 12.2-19.693 4.855-9.718 2.005-21.364-4.641-30.234h-151.215c8.709 8.125 14.536 20.017 18.388 31.586 5.661 17.014 9.102 35.441 20.289 49.455 12.566 15.741 32.788 23.146 52.426 27.618s40.071 6.854 58.193 15.644c3.381 1.643 6.629 3.549 9.712 5.7h145.27c-.02-5.556-1.279-11.038-3.684-16.047-7.063-14.456-22.004-23.778-37.545-27.92z" fill="#83beff"/><path d="m279.076 22.775h-50.922c-8.8 0-16.134 7.55-17.73 17.538h11.267c.643-2.9853 2.299-5.6564 4.686-7.5603 2.388-1.9039 5.36-2.9234 8.414-2.8857h37.638c3.054-.0377 6.026.9818 8.414 2.8857 2.387 1.9039 4.043 4.575 4.686 7.5603h11.267c-1.586-9.989-8.915-17.538-17.72-17.538z" fill="#b9dded"/><path d="m257.121 125.523h27.451c4.495-.001 8.878-1.402 12.54-4.008 3.662-2.607 6.422-6.29 7.894-10.537h-27.451c-1.472 4.247-4.232 7.93-7.894 10.537-3.662 2.606-8.045 4.007-12.54 4.008z" fill="#b9dded"/><path d="m278.356 52.665h27.451c-.951-4.935-3.59-9.385-7.465-12.5854-3.876-3.2004-8.744-4.9516-13.77-4.9526h-27.451c5.026.001 9.894 1.7522 13.77 4.9526 3.875 3.2004 6.514 7.6504 7.465 12.5854z" fill="#b9dded"/><path d="m305.807 52.665h-27.451c.259 1.3476.39 2.7167.391 4.089v47.146c.001 2.411-.403 4.805-1.193 7.082h27.451c.791-2.277 1.195-4.671 1.195-7.082v-47.146c-.001-1.3723-.133-2.7414-.393-4.089z" fill="#066d76"/><path d="m277.555 110.979h-74.407c1.473 4.247 4.232 7.93 7.894 10.537 3.662 2.606 8.045 4.007 12.54 4.008h33.539c4.495-.001 8.878-1.402 12.54-4.008 3.662-2.607 6.421-6.29 7.894-10.537z" fill="#fff"/><path d="m202.346 52.665h76.01c-.951-4.935-3.59-9.385-7.465-12.5854-3.876-3.2004-8.744-4.9516-13.77-4.9526h-33.539c-5.026.0008-9.895 1.7518-13.77 4.9523-3.875 3.2004-6.515 7.6505-7.466 12.5857z" fill="#fff"/><path d="m201.955 56.754v47.146c-.001 2.411.403 4.805 1.193 7.082h74.407c.79-2.277 1.194-4.671 1.193-7.082v-47.146c-.001-1.3723-.132-2.7414-.391-4.089h-76.01c-.26 1.3476-.391 2.7167-.392 4.089z" fill="#138689"/><path d="m263.061 87.5701h-18.892c-6.627 0-12 5.3726-12 12v7.8789c0 6.627 5.373 12 12 12h18.892c6.627 0 12-5.373 12-12v-7.8789c0-6.6274-5.373-12-12-12z" fill="#fff"/><path d="m259.519 102.434h-11.809c-4.698 0-8.507 3.809-8.507 8.507v.001c0 4.698 3.809 8.507 8.507 8.507h11.809c4.698 0 8.507-3.809 8.507-8.507v-.001c0-4.698-3.809-8.507-8.507-8.507z" fill="#b9dded"/><path d="m260.635 108.54h-14.039c-2.566 0-4.647 2.081-4.647 4.647 0 2.567 2.081 4.647 4.647 4.647h14.039c2.566 0 4.647-2.08 4.647-4.647 0-2.566-2.081-4.647-4.647-4.647z" fill="#fff"/><path d="m244.908 98.007c1.635 0 2.96-1.3252 2.96-2.96 0-1.6347-1.325-2.96-2.96-2.96s-2.96 1.3253-2.96 2.96c0 1.6348 1.325 2.96 2.96 2.96z" fill="#41e0d0"/><path d="m262.065 98.007c1.635 0 2.96-1.3252 2.96-2.96 0-1.6347-1.325-2.96-2.96-2.96s-2.96 1.3253-2.96 2.96c0 1.6348 1.325 2.96 2.96 2.96z" fill="#ff6b6b"/><g fill="#b9dded"><path d="m202.346 52.665v26.7c-1.373 0-2.69-.5454-3.661-1.5163-.971-.9708-1.516-2.2876-1.516-3.6607v-16.346c0-1.373.545-2.6898 1.516-3.6607.971-.9708 2.288-1.5163 3.661-1.5163z"/><path d="m306.198 79.362v-26.7c1.373 0 2.69.5454 3.661 1.5163s1.516 2.2877 1.516 3.6607v16.346c0 1.373-.545 2.6898-1.516 3.6607s-2.288 1.5163-3.661 1.5163z"/><path d="m219.787 125.187h12.382c0 1.276-.507 2.501-1.41 3.403-.902.903-2.127 1.41-3.403 1.41h-2.756c-1.276 0-2.501-.507-3.403-1.41-.903-.902-1.41-2.127-1.41-3.403z"/><path d="m277.434 125.187h12.382c0 .632-.125 1.258-.367 1.843-.242.584-.597 1.114-1.044 1.561s-.978.802-1.562 1.044c-.585.241-1.211.365-1.843.365h-2.756c-1.276 0-2.501-.507-3.403-1.41-.903-.902-1.41-2.127-1.41-3.403z"/></g><path d="m154.719 127h-5.642v3h5.642z" fill="#0d6093"/><path d="m174.719 127h-5.642v3h5.642z" fill="#0d6093"/><path d="m184.872 43.588h-2.751c-.005-.656-.007-1.307-.021-1.976h-20.2v27.269c1.585.3778 3.195.6451 4.817.8 3.689.2933 7.399-.2164 10.872-1.494-2.193 11.9-5.564 19.187-6.969 21.854h-8.72v2.518h10.191s3.378-5.265 6.216-15.934c.361.0499.725.0763 1.09.079 3.688-.0042 7.223-1.4711 9.831-4.0788s4.075-6.1433 4.079-9.8312v-10.773c-.002-2.2362-.892-4.3801-2.473-5.9611-1.582-1.581-3.726-2.47-5.962-2.4719zm4.027 19.2c-.004 2.5183-1.006 4.9324-2.787 6.7131-1.781 1.7808-4.195 2.7829-6.713 2.7869h-.045c1.704-7.9914 2.625-16.1299 2.75-24.3h2.772c1.068.0011 2.091.4257 2.846 1.1807.755.7549 1.18 1.7786 1.181 2.8463z" fill="#c9e3fc"/><path d="m161.9 90.036h-8.365c-1.489-2.8-5.162-10.716-7.325-23.838 1.579-.1163 3.165-.0637 4.733.157 3.71.521 7.305 1.7 10.956 2.526v-27.269h-26.967l7.288 10.747c1.38 26.978 9.849 40.195 9.849 40.195h9.831z" fill="#fff"/><path d="m170.619 90.036c1.405-2.667 4.776-9.949 6.969-21.854-3.474 1.2776-7.183 1.7873-10.872 1.494-1.622-.1549-3.232-.4222-4.817-.8v21.16z" fill="#e25959"/><path d="m146.209 66.2c2.163 13.123 5.836 21.034 7.325 23.838h8.366v-21.157c-3.651-.825-7.246-2.005-10.956-2.526-1.568-.2202-3.156-.2721-4.735-.155z" fill="#ff6b6b"/><path d="m161.9 35.318h-13.548c-1.669 0-3.27.6631-4.451 1.8435-1.18 1.1803-1.843 2.7812-1.843 4.4505h19.842z" fill="#0d6093"/><path d="m162.079 41.612h20.055c0-1.6693-.663-3.2702-1.843-4.4505-1.181-1.1804-2.782-1.8435-4.451-1.8435h-13.94v6.294z" fill="#015077"/><path d="m161.9 92.554v7.365h12.9v-2.438c0-1.3068-.519-2.56-1.443-3.484s-2.177-1.443-3.484-1.443z" fill="#015077"/><path d="m161.9 92.554h-7.975c-1.306.0005-2.559.5198-3.483 1.4437-.923.924-1.442 2.1769-1.442 3.4833v2.438h12.9z" fill="#0d6093"/><path d="m161.898 122.261h16.678l-3.776-22.343h-12.902z" fill="#e08d14"/><path d="m161.898 99.918h-12.902l-3.776 22.343h16.678z" fill="#ffb942"/><path d="m161.9 128.5h11.709c2.744 0 4.969-1.5 4.969-3.355v-2.884h-16.678z" fill="#015077"/><path d="m145.22 122.261v2.884c0 1.853 2.225 3.355 4.969 3.355h11.711v-6.239z" fill="#0d6093"/><path d="m161.898 116.922c3.221 0 5.833-2.612 5.833-5.833s-2.612-5.833-5.833-5.833-5.833 2.612-5.833 5.833 2.612 5.833 5.833 5.833z" fill="#e08d14"/><path d="m162.972 106.212v3.794c0 .287-.114.563-.317.766-.204.203-.479.317-.766.317-.288 0-.563-.114-.767-.317-.203-.203-.317-.479-.317-.766v-3.789c-1.202.27-2.261.974-2.976 1.978-.714 1.003-1.033 2.235-.896 3.459.138 1.224.723 2.354 1.642 3.174.92.819 2.109 1.271 3.341 1.267 1.232-.003 2.419-.461 3.334-1.286s1.493-1.958 1.624-3.183c.131-1.224-.195-2.454-.915-3.454-.72-.999-1.784-1.696-2.987-1.96z" fill="#fff"/><path d="m161.889 111.089c.287 0 .563-.114.766-.317s.317-.479.317-.766v-3.794c-.713-.165-1.455-.163-2.167.006v3.789c0 .142.028.283.083.414.054.132.134.251.235.351.101.101.22.181.351.235.132.054.273.082.415.082z" fill="#c9e3fc"/><path d="m319.911 117.9c-2.559-.003-5.012-1.022-6.82-2.833-1.808-1.81-2.824-4.264-2.825-6.823v-22.627c.003-2.5595 1.021-5.0133 2.831-6.8232 1.81-1.8098 4.264-2.8279 6.823-2.8308h13.67c2.439.0083 4.785.936 6.57 2.598 1.785 1.6619 2.878 3.9359 3.06 6.368l1.418 19.849c.171 2.37-.538 4.72-1.993 6.599-1.454 1.879-3.551 3.155-5.888 3.584l-15.087 2.779c-.58.106-1.169.16-1.759.16zm.009-36.522c-1.124.0013-2.201.4483-2.995 1.2428-.795.7945-1.242 1.8716-1.243 2.9952v22.628c0 .622.137 1.235.401 1.798s.648 1.061 1.126 1.459c.477.397 1.037.685 1.638.843.601.157 1.23.18 1.841.068l15.087-2.779c1.026-.188 1.946-.748 2.584-1.573.639-.824.95-1.856.875-2.896l-1.418-19.849c-.08-1.0677-.559-2.0659-1.343-2.7956-.783-.7296-1.813-1.1368-2.884-1.1404z" fill="#015077"/><path d="m286.918 70.417h-8.387c-.298-.0007-.592.0711-.857.2094-.264.1383-.491.3388-.661.5843-.169.2455-.277.5286-.312.8248-.036.2962.001.5967.107.8755 1.259 3.283 3.789 8.9 7.052 11.116 4.74 3.22 3.058-13.61 3.058-13.61z" fill="#e08d14"/><path d="m305.917 70.417h-19c-6.254 18.493-6.088 39.671-5.693 48.283.072 1.467.307 2.921.7 4.336h23.995z" fill="#ffb942"/><path d="m288.45 130h17.468v-6.964h-23.995c.242.915.556 1.809.939 2.674 1.211 2.671 3.32 4.29 5.588 4.29z" fill="#0d6093"/><path d="m329.912 123.036c.393-1.415.628-2.869.7-4.336.411-8.968.579-31.566-6.5-50.565-.725-1.945-2.19-3.135-3.763-3.135h-6.416c-.622 1.5954-1.711 2.9659-3.125 3.9324-1.413.9664-3.086 1.4839-4.798 1.4846h-.093v52.619z" fill="#e08d14"/><path d="m305.917 130h17.468c2.268 0 4.377-1.62 5.588-4.29.383-.865.697-1.759.939-2.674h-23.995z" fill="#015077"/><path d="m305.917 65h-14.431c-1.573 0-3.038 1.19-3.762 3.135-.281.755-.547 1.517-.806 2.282h19z" fill="#0d6093"/><path d="m305.917 70.417h.093c1.712-.0007 3.385-.5182 4.798-1.4846 1.414-.9665 2.503-2.337 3.125-3.9324h-8.015z" fill="#015077"/><path d="m311.294 89.403c0-2.9696-2.407-5.377-5.376-5.377-2.97 0-5.377 2.4074-5.377 5.377v21.61c0 2.97 2.407 5.377 5.377 5.377 2.969 0 5.376-2.407 5.376-5.377z" fill="#015077"/><path d="m306.933 90.149h-2.032c-.908 0-1.644.7361-1.644 1.644v.001c0 .908.736 1.644 1.644 1.644h2.032c.908 0 1.644-.736 1.644-1.644v-.001c0-.9079-.736-1.644-1.644-1.644z" fill="#fff"/><path d="m306.933 97.887h-2.032c-.908 0-1.644.736-1.644 1.644v.001c0 .908.736 1.644 1.644 1.644h2.032c.908 0 1.644-.736 1.644-1.644v-.001c0-.908-.736-1.644-1.644-1.644z" fill="#fff"/><path d="m306.933 105.625h-2.032c-.908 0-1.644.736-1.644 1.644v.001c0 .908.736 1.644 1.644 1.644h2.032c.908 0 1.644-.736 1.644-1.644v-.001c0-.908-.736-1.644-1.644-1.644z" fill="#fff"/></g></svg>