<svg fill="none" height="130" viewBox="0 0 350 130" width="350" xmlns="http://www.w3.org/2000/svg" xmlns:xlink="http://www.w3.org/1999/xlink"><clipPath id="a"><path d="m0 0h350v130h-350z"/></clipPath><g clip-path="url(#a)"><path d="m127.214 26.714c11.23-.217 22.843-.519 33.013-5.286 8.631-4.045 15.973-12.228 17.14-21.428h-177.367v32.984c14.874-4.037 30.724-4.408 46.24-4.707z" fill="#bba8c6"/><path d="m106.907 102.663c25.344-13.619 54.416-18.511 83.059-21.222s57.6-3.465 85.7-9.662c9.195-2.028 18.436-4.713 26.243-9.977s14.071-13.486 15.013-22.855c1.05-10.439-4.65-20.643-12.48-27.627-5.298-4.725-11.492-8.235-17.918-11.32h-109.157c-1.171 9.2-8.509 17.383-17.14 21.429-10.17 4.767-21.783 5.069-33.013 5.286l-80.974 1.562c-15.516.3-31.366.67-46.24 4.707v97.016h73.482c9.2372-11.22 20.5954-20.509 33.425-27.337z" fill="#9886ba"/><path d="m350 0h-63.476c6.427 3.085 12.62 6.595 17.919 11.321 7.83 6.983 13.53 17.187 12.48 27.627-.942 9.368-7.206 17.591-15.013 22.855s-17.049 7.949-26.243 9.977c-28.1 6.2-57.057 6.951-85.7 9.662s-57.715 7.6-83.059 21.222c-12.8299 6.827-24.1884 16.116-33.426 27.336h276.518z" fill="#74599c"/><path d="m221.105 24.943h93.463l1.433 17.513h-93.084z" fill="#af1b1b"/><path d="m226.351 75.636-3.434-33.18h93.084l2.877 35.172z" fill="#d34242"/><path d="m227.191 79.2119-21.956-7.4412 15.869-46.824 17.142 5.8097c3.475 1.1777 6.34 3.6877 7.965 6.9778 1.624 3.2901 1.875 7.0907.697 10.5658l-8.62 25.434c-.744 2.1979-2.332 4.0098-4.413 5.0372-2.081 1.0275-4.484 1.1862-6.682.4413z" fill="#af1b1b"/><path d="m173.176 88.72h127.381c1.603 0 2.902-1.2993 2.902-2.902v-11.121c0-1.6027-1.299-2.902-2.902-2.902h-127.381c-1.603 0-2.902 1.2993-2.902 2.902v11.121c0 1.6027 1.299 2.902 2.902 2.902z" fill="#d34242"/><path d="m258.202 88.72h42.354c1.603 0 2.902-1.2993 2.902-2.902v-11.121c0-1.6027-1.299-2.902-2.902-2.902h-42.354c-1.603 0-2.902 1.2993-2.902 2.902v11.121c0 1.6027 1.299 2.902 2.902 2.902z" fill="#ff6b6b"/><path d="m174.79 93.394h121.814v-4.673h-121.814z" fill="#af1b1b"/><path d="m293.229 130h-115.063c-.895 0-1.754-.356-2.386-.989-.633-.632-.989-1.491-.989-2.386v-33.231h121.813v33.231c0 .895-.356 1.754-.989 2.386-.632.633-1.491.989-2.386.989z" fill="#d34242"/><path d="m293.229 130h-30.48c-.895 0-1.754-.356-2.386-.989-.633-.632-.989-1.491-.989-2.386v-33.231h37.23v33.231c0 .895-.356 1.754-.989 2.386-.632.633-1.491.989-2.386.989z" fill="#ff6b6b"/><path d="m244.298 85.259h-11.995c-1.18 0-2.137.9568-2.137 2.137v11.995c0 1.18.957 2.137 2.137 2.137h11.995c1.18 0 2.137-.957 2.137-2.137v-11.995c0-1.1802-.957-2.137-2.137-2.137z" fill="#af1b1b"/><path d="m240 85.259h-.515c.11.2801.167.5781.169.879v9.462c0 .6535-.26 1.2802-.722 1.7423s-1.089.7217-1.742.7217h-6.856c.177.4663.492.8677.903 1.1508s.898.4345 1.397.4342h7.366c.653 0 1.28-.2596 1.742-.7217s.722-1.0888.722-1.7423v-9.462c0-.6535-.26-1.2802-.722-1.7423s-1.089-.7217-1.742-.7217z" fill="#e08d14"/><path d="m239.654 95.6v-9.463c-.002-.3009-.059-.5989-.169-.879h-6.855c-.654 0-1.28.2596-1.742.7217s-.722 1.0888-.722 1.7423v9.465c.002.3009.059.5989.169.879h6.856c.324-.0001.644-.064.943-.188.299-.1241.571-.3058.799-.5348.229-.229.41-.5008.534-.7999s.187-.6196.187-.9433z" fill="#ffb942"/><path d="m233.742 86.824h-1.636c-.519 0-.94.4208-.94.94v4.269c0 .5191.421.94.94.94h1.636c.519 0 .94-.4209.94-.94v-4.269c0-.5192-.421-.94-.94-.94z" fill="#ffd392"/><path d="m195.697 85.259h-11.995c-1.18 0-2.137.9568-2.137 2.137v11.995c0 1.18.957 2.137 2.137 2.137h11.995c1.18 0 2.137-.957 2.137-2.137v-11.995c0-1.1802-.957-2.137-2.137-2.137z" fill="#af1b1b"/><path d="m191.4 85.259h-.515c.11.2801.167.5781.169.879v9.462c0 .6535-.26 1.2802-.722 1.7423s-1.089.7217-1.742.7217h-6.856c.177.4663.492.8677.903 1.1508s.898.4345 1.397.4342h7.366c.653 0 1.28-.2596 1.742-.7217s.722-1.0888.722-1.7423v-9.462c0-.6535-.26-1.2802-.722-1.7423s-1.089-.7217-1.742-.7217z" fill="#e08d14"/><path d="m191.053 95.6v-9.463c-.002-.3009-.059-.5989-.169-.879h-6.856c-.654 0-1.28.2596-1.742.7217s-.722 1.0888-.722 1.7423v9.465c.002.3009.059.5989.169.879h6.856c.324 0 .644-.0638.943-.1878.299-.1239.571-.3056.8-.5346s.41-.5009.534-.8001c.124-.2991.187-.6198.187-.9435z" fill="#ffb942"/><path d="m185.141 86.824h-1.636c-.519 0-.94.4208-.94.94v4.269c0 .5191.421.94.94.94h1.636c.519 0 .94-.4209.94-.94v-4.269c0-.5192-.421-.94-.94-.94z" fill="#ffd392"/><path d="m311.306 76.0431-12.608-4.2729 15.869-46.824 7.989 2.7075c5.903 2.0005 10.769 6.2639 13.528 11.8524 2.76 5.5885 3.186 12.0443 1.185 17.9471l-2.349 6.9317c-.785 2.3161-2.018 4.4549-3.63 6.2943-1.611 1.8394-3.57 3.3433-5.762 4.4259-2.193 1.0826-4.578 1.7226-7.018 1.8835-2.44.161-4.888-.1603-7.204-.9455z" fill="#ff6b6b"/><path d="m337.569 130h-4.745c-.724 0-1.418-.288-1.93-.799-.512-.512-.799-1.206-.799-1.93v-2.483h10.199v2.483c0 .723-.287 1.417-.798 1.928-.511.512-1.204.8-1.927.801z" fill="#32b2af"/><path d="m318.877 126.812h21.421v-2.025h-21.421z" fill="#326663"/><path d="m297.7 92.58h10.142l-3.742 1.938c4.8 3.052 8.108 9.406 8.108 16.771s-3.309 13.719-8.108 16.771l3.742 1.94h-10.142c-8.014 0-14.511-8.377-14.511-18.71s6.498-18.71 14.511-18.71z" fill="#ffb942"/><path d="m307.658 130c8.014 0 14.511-8.377 14.511-18.71s-6.497-18.71-14.511-18.71-14.511 8.377-14.511 18.71 6.497 18.71 14.511 18.71z" fill="#e08d14"/><path d="m307.666 130h16.668v-8.412h-16.668z" fill="#e08d14"/><path d="m313.352 111.29c0-4.579-2.556-8.373-5.927-9.177.433-.109.877-.167 1.324-.172 4 0 7.251 4.186 7.251 9.349s-3.246 9.35-7.251 9.35c-.447-.005-.891-.063-1.324-.172 3.375-.805 5.927-4.6 5.927-9.178z" fill="#ffd392"/><path d="m301.5 111.29c0-4.579 2.556-8.373 5.927-9.177 3.371.8 5.927 4.6 5.927 9.177s-2.556 8.373-5.927 9.177c-3.372-.804-5.927-4.599-5.927-9.177z" fill="#fff"/><path d="m263.117 70.209c-.03-2.6256-1.095-5.1333-2.964-6.9779s-4.39-2.8771-7.016-2.873-5.144 1.0444-7.007 2.8948-2.92 4.3614-2.942 6.9871c.005.5215.051 1.0418.138 1.556h-14.471c0-1.4 0-2.8 0-4.2-.045-.3914.066-.7848.309-1.0945.244-.3097.6-.5104.991-.5585 1.655-.413 3.309-.825 4.968-1.221.122-.0209.235-.0754.327-.1574.093-.082.16-.1882.195-.3066.3-.765.609-1.524.951-2.269.074-.1263.11-.2711.103-.4171-.006-.1461-.054-.2874-.138-.4069-.75-1.208-1.472-2.434-2.2-3.654-.138-.1614-.24-.3497-.302-.5529-.061-.2032-.079-.417-.053-.6276s.095-.4136.204-.596c.108-.1824.253-.3402.426-.4635 1.195-1.2 2.392-2.3967 3.59-3.59.122-.1685.277-.3101.456-.4159s.378-.1736.585-.1991c.206-.0255.416-.0082.615.0508.2.059.385.1585.544.2922 1.249.744 2.5 1.486 3.739 2.245.101.0721.22.1142.344.1215s.247-.0207.356-.0805c.762-.343 1.533-.669 2.313-.969.125-.0397.236-.1134.32-.2129.085-.0995.141-.2208.16-.3501.374-1.583.783-3.157 1.15-4.742.044-.3372.181-.6557.395-.9203.213-.2647.496-.4653.816-.5797h6.264c.312.1109.588.3046.798.5604s.347.564.395.8916c.369 1.6.789 3.186 1.162 4.784.024.1363.085.2632.178.3661.092.103.212.1778.345.2159.821.323 1.632.672 2.436 1.037.113.0656.243.0975.374.0921.131-.0055.257-.0482.365-.1231 1.277-.788 2.568-1.551 3.856-2.321.161-.1383.348-.2418.551-.3038.203-.0621.416-.0814.626-.0568.211.0246.414.0927.597.1998.183.1072.342.2512.466.4228 1.2 1.194 2.396 2.39 3.588 3.588.17.1267.311.2867.417.4701.106.1835.173.3866.197.5969.024.2102.006.4233-.055.626s-.163.3909-.299.553c-.8 1.342-1.6 2.685-2.416 4.02-.071.1005-.111.219-.117.3417s.023.2445.084.3513c.294.645.561 1.3.8 1.97.036.1339.11.2545.213.3474s.23.1542.367.1766c1.6.376 3.184.8 4.783 1.167.327.0486.635.1854.891.3958.256.2103.449.4862.56.7982v4.7h-14.47c.09-.5217.137-1.0497.142-1.579z" fill="#326663"/><path d="m259.928 70.209c-.041-2.6183-1.111-5.1152-2.978-6.9508-1.868-1.8357-4.383-2.8625-7.001-2.8584-2.619.0041-5.131 1.0387-6.992 2.8801-1.862 1.8415-2.924 4.3417-2.957 6.9601.005.5215.051 1.0418.138 1.556h-14.472c0-1.4 0-2.8 0-4.2-.045-.3914.066-.7848.309-1.0945.244-.3097.6-.5104.991-.5585 1.655-.413 3.309-.825 4.968-1.221.122-.0209.235-.0754.327-.1574.093-.082.16-.1882.195-.3066.3-.765.609-1.524.951-2.269.074-.1263.11-.2711.103-.4171-.006-.1461-.054-.2874-.138-.4069-.75-1.208-1.472-2.434-2.2-3.654-.138-.1614-.24-.3497-.302-.5529-.061-.2032-.079-.417-.053-.6276s.095-.4136.204-.596c.108-.1824.253-.3402.426-.4635 1.195-1.2 2.392-2.3967 3.59-3.59.122-.1685.277-.3101.456-.4159s.378-.1736.585-.1991c.206-.0255.416-.0082.615.0508.2.059.385.1585.544.2922 1.249.744 2.5 1.486 3.739 2.245.101.0721.22.1142.344.1215s.247-.0207.356-.0805c.762-.343 1.533-.669 2.313-.969.125-.0397.236-.1134.32-.2129.085-.0995.141-.2208.16-.3501.374-1.583.783-3.157 1.15-4.742.044-.3372.181-.6557.395-.9203.213-.2647.496-.4653.816-.5797h6.27c.312.1109.588.3046.798.5604s.347.564.395.8916c.369 1.6.789 3.186 1.162 4.784.024.1363.085.2632.178.3661.092.103.212.1778.345.2159.821.323 1.632.672 2.436 1.037.113.0656.243.0975.374.0921.131-.0055.258-.0482.365-.1231 1.277-.788 2.568-1.551 3.856-2.321.161-.1383.348-.2418.551-.3038.203-.0621.416-.0814.626-.0568.211.0246.414.0927.597.1998.183.1072.342.2512.466.4228 1.2 1.194 2.396 2.39 3.588 3.588.17.1267.312.2867.417.4701.106.1835.173.3866.197.5969.024.2102.006.4233-.055.626s-.163.3909-.299.553c-.8 1.342-1.6 2.685-2.416 4.02-.071.1005-.111.219-.117.3417s.023.2445.084.3513c.294.645.561 1.3.8 1.97.036.1339.11.2545.213.3474s.23.1542.367.1766c1.6.376 3.184.8 4.783 1.167.327.0486.635.1854.891.3958.256.2103.449.4862.56.7982v4.7h-14.47c.088-.5218.133-1.0499.136-1.579z" fill="#c6d8f4"/><g fill="#5d8ec9"><path d="m152.494 120 9.637.853c.709.063 1.423-.017 2.1-.235.678-.219 1.304-.571 1.843-1.036.538-.465.978-1.034 1.293-1.672.314-.638.497-1.334.538-2.044.073-1.332-.373-2.641-1.246-3.651-.964-1.129-2.333-1.835-3.812-1.967l-9.47-.839c-.313-.028-.614-.137-.872-.318-.257-.181-.463-.426-.595-.711-.133-.286-.188-.601-.161-.914.028-.314.138-.614.319-.872l2.073-2.954c.6-.856 1.416-1.538 2.364-1.978.948-.441 1.995-.624 3.036-.531l9.322.825c1.041.092 2.039.457 2.894 1.057s1.537 1.415 1.977 2.362l2.648 5.694 49.277 2.953c.888.053 1.757.284 2.554.679s1.508.945 2.088 1.619c.581.674 1.021 1.458 1.294 2.305.272.847.372 1.74.294 2.626l-.237 2.681c-.078.886-.334 1.747-.751 2.533-.417.785-.987 1.48-1.677 2.041s-1.485.979-2.339 1.227c-.854.249-1.75.324-2.633.221l-50.1-5.879-2.368 3.374c-.6.856-1.416 1.538-2.364 1.978-.948.441-1.995.624-3.036.531l-9.322-.825c-1.041-.092-2.039-.457-2.894-1.057s-1.537-1.415-1.977-2.362l-1.475-3.173c-.132-.285-.188-.599-.16-.912.027-.313.137-.614.317-.871s.424-.463.709-.596c.284-.133.599-.189.912-.162z"/><path d="m225.582 117.043c.55.048 1.082.221 1.555.507.473.285.875.674 1.175 1.138.452.719.649 1.569.558 2.413l-.212 2.4c-.036.52-.177 1.028-.415 1.492-.237.464-.567.875-.968 1.208-.373.299-.802.52-1.262.651-.46.13-.942.167-1.416.108l-44.884-5.336c-.799-.095-1.529-.497-2.035-1.122-.507-.625-.75-1.422-.678-2.223l.092-1.044c.071-.807.453-1.554 1.066-2.083.613-.53 1.409-.799 2.217-.751l45.1 2.633z"/><path d="m225.735 122.058c.144-1.623-1.055-3.055-2.678-3.198-1.623-.144-3.055 1.055-3.199 2.678s1.055 3.055 2.678 3.199c1.623.143 3.055-1.056 3.199-2.679z"/></g><path d="m149.045 120 9.637.853c.709.063 1.423-.017 2.1-.235.678-.219 1.304-.571 1.843-1.036.538-.465.978-1.034 1.293-1.672.314-.638.497-1.334.538-2.044.073-1.332-.373-2.641-1.246-3.651-.964-1.129-2.333-1.835-3.812-1.967l-9.47-.839c-.313-.028-.614-.137-.872-.318-.257-.181-.463-.426-.595-.711-.133-.286-.188-.601-.161-.914.028-.314.138-.614.319-.872l2.073-2.954c.6-.856 1.416-1.538 2.364-1.978.948-.441 1.995-.624 3.036-.531l9.322.825c1.041.092 2.039.457 2.894 1.057s1.537 1.415 1.977 2.362l2.648 5.694 49.277 2.953c.888.053 1.757.284 2.554.679s1.508.945 2.088 1.619c.581.674 1.021 1.458 1.294 2.305.272.847.372 1.74.294 2.626l-.237 2.681c-.078.886-.334 1.747-.751 2.533-.417.785-.987 1.48-1.677 2.041s-1.485.979-2.339 1.227c-.854.249-1.75.324-2.633.221l-50.1-5.879-2.368 3.374c-.6.856-1.416 1.538-2.364 1.978-.948.441-1.995.624-3.036.531l-9.322-.825c-1.041-.092-2.039-.457-2.894-1.057s-1.537-1.415-1.977-2.362l-1.475-3.173c-.132-.285-.188-.599-.16-.912.027-.313.137-.614.317-.871s.424-.463.709-.596c.284-.133.599-.189.912-.162z" fill="#fff"/><path d="m222.133 117.043c.55.048 1.082.221 1.555.507.474.285.875.674 1.175 1.138.452.719.649 1.569.558 2.413l-.212 2.4c-.036.52-.177 1.028-.415 1.492-.237.464-.567.875-.968 1.208-.373.299-.802.52-1.262.651-.46.13-.942.167-1.416.108l-44.884-5.336c-.798-.095-1.527-.497-2.034-1.121-.506-.623-.75-1.42-.679-2.22l.092-1.044c.071-.807.453-1.554 1.066-2.083.613-.53 1.409-.799 2.217-.751l45.1 2.633z" fill="#75a7d8"/><path d="m219.607 118.859c.428.04.842.173 1.212.391-.448.258-.82.629-1.078 1.077-.259.447-.395.955-.394 1.471 0 .517.137 1.025.397 1.472.259.447.632.817 1.08 1.074-.401.233-.851.368-1.314.394s-.925-.058-1.35-.244c-.424-.186-.799-.47-1.093-.828-.295-.358-.5-.781-.601-1.233-.1-.453-.092-.923.023-1.372s.335-.864.641-1.213c.306-.348.689-.619 1.12-.791.43-.172.895-.239 1.357-.198z" fill="#5d8ec9"/><path d="m219.359 121.537c.042-.47.197-.924.451-1.322s.601-.729 1.01-.965c.448.257.821.627 1.08 1.074.26.447.397.955.397 1.472.001.516-.135 1.024-.394 1.471-.258.448-.63.819-1.078 1.077-.487-.279-.883-.692-1.143-1.19-.259-.497-.372-1.058-.323-1.617z" fill="#d34242"/><path d="m184.943 102.63c-.659.143-1.174.652-1.859.731l-.174.024.016.014c-.122-.153-.286-.267-.472-.328-1.083-.483-1.994-1.284-2.611-2.297s-.911-2.1898-.843-3.374c-.007-12.456-.015-34.16-.036-46.616-.032-.245-.001-.4942.09-.7238.092-.2296.241-.4318.433-.5872l1.011-.083c1.491.014 2.982.034 4.473.038.32.0602.651.0254.952-.1.169.134.376.075.565.108.23.0217.444.1261.603.2939.158.1677.25.3874.259.6181.018.2375.024.4759.017.714.01 11.75.008 32.747.037 44.5 0 1.978.034 3.935-1.08 5.688z" fill="#d3834c"/><path d="m185.921 49.328c-.301.1254-.632.1602-.952.1-1.491 0-2.982-.024-4.473-.038.012-2.0367.025-4.0737.039-6.111 0-.331-.14-.474-.469-.466-1 .022-1.991.035-2.986.052-.785-.1097-1.581-.1241-2.37-.043-.7.04-.977-.21-.931-.881.138-.0527.254-.1505.329-.2777.075-.1271.105-.276.085-.4223-.019-4.366-.023-8.7327-.012-13.1.016-.1708-.013-.3428-.083-.4993-.07-.1566-.179-.2925-.317-.3947-.06-.665.224-.854.9-.848 4.029.031 8.058.009 12.087.006 1.777 0 2.576.758 2.547 2.51-.009.554.149.659.676.658 2.314-.161 4.64-.035 6.923.375 2.61.5443 5.03 1.7705 7.012 3.5538 1.983 1.7832 3.457 4.0599 4.274 6.5982.039.1434.069.2894.087.437-.9-.687-1.472-1.678-2.363-2.391-1.022-.8577-2.142-1.5912-3.336-2.185-2.421-1.167-5.108-1.6711-7.788-1.461-1.741.1473-3.452.5471-5.078 1.187-.106.0223-.2.0817-.265.1673-.066.0857-.098.192-.092.2997.018 1.124.031 2.248.046 3.372-.1.2858-.127.5923-.077.891.034.3216-.004.6468-.112.9515-.109.3047-.284.5812-.514.8088s-.508.4006-.813.5062c-.306.1055-.632.1409-.953.1035-1 .012-.993.012-1 1.019-.004 1.842-.011 3.6827-.021 5.522z" fill="#c6d8f4"/><path d="m179.485 49.473c-.192.1554-.341.3576-.433.5872-.091.2295-.122.4788-.09.7238.022 12.456.03 34.16.036 46.616-.068 1.1844.226 2.3614.844 3.374.617 1.014 1.528 1.815 2.612 2.297.186.061.35.175.472.328-1.041.259-2.133.226-3.156-.095s-1.938-.918-2.644-1.725c-.99-1.298-1.504-2.8971-1.454-4.529.006-12.314-.011-33.876-.019-46.191 0-1.105.18-1.308 1.267-1.461.062-.0175.121-.0434.176-.077.799-.0128 1.598.038 2.389.152z" fill="#754727"/><path d="m173.777 27.248c.138.1022.247.2381.317.3947.07.1565.099.3285.083.4993-.009 4.366-.005 8.7327.012 13.1.02.1463-.01.2952-.085.4223s-.191.225-.329.2777c-1.452-3.234-5.994-3.174-7.749-1.145-.24.2186-.434.4832-.57.7782-.136.2949-.211.6142-.221.9388.017.3-.139.313-.352.313-2.3 0-4.592 0-6.888.009-.272 0-.384-.066-.379-.361.025-1.491.032-2.983.045-4.474 2.269-.016 4.538-.056 6.806-.033.594.006.71-.178.7-.732-.029-3.027-.019-6.054-.017-9.081 0-.252-.073-.525.135-.742.355.614.839 1.1443 1.417 1.5545.579.4102 1.239.6908 1.936.8225.697.1318 1.415.1116 2.103-.0591.689-.1707 1.332-.4878 1.887-.9299.488-.4311.879-.9603 1.149-1.553z" fill="#5d8ec9"/><path d="m165.291 27.412c-.208.217-.135.49-.135.742 0 3.027-.012 6.055.017 9.081.005.553-.11.738-.7.732-2.268-.023-4.537.017-6.806.033-.011-3.72-.025-7.4397-.04-11.159 0-.305.094-.417.405-.416 2.25.007 4.5-.012 6.75.008.693.005.334.652.509.979z" fill="#c6d8f4"/><path d="m189.408 39.53c-.015-1.124-.027-2.248-.046-3.372-.006-.1077.026-.214.092-.2996.065-.0857.159-.1451.265-.1674 1.627-.6415 3.339-1.0427 5.081-1.191 2.68-.2127 5.369.2894 7.792 1.455 1.194.5938 2.314 1.3273 3.336 2.185.892.713 1.467 1.7 2.363 2.391.078.108.174.262.091.351-.113.121-.272-.012-.4-.058-2.106-.7297-4.281-1.2394-6.492-1.521-4.01-.619-8.098-.5422-12.082.227z" fill="#5d8ec9"/><path d="m179.485 49.473c-.792-.1142-1.593-.1651-2.393-.152-.004-2.152-.008-4.304-.013-6.456 1-.017 1.991-.03 2.986-.052.33-.007.472.136.469.466-.017 2.0367-.03 4.0737-.039 6.111z" fill="#5d8ec9"/><path d="m182.91 103.385.174-.024c-.009.014-.021.026-.035.035s-.03.015-.046.017c-.017.002-.034.001-.05-.004s-.03-.013-.043-.024z" fill="#8e6047"/><path d="m175.649 32.212h11.755v-4.477h-11.755z" fill="#fff"/><path d="m157.644 32.212h7.646v-4.8h-7.646z" fill="#fff"/><path d="m123.009 52.11v-24h-3.23l-5.103 12v13.929l2.083 1.821z" fill="#c6d8f4"/><path d="m116.147 93.076c.012-5.15 0-10.3.037-15.451.042-6.575 3.165-10.46 6.9-15.429 2.85-3.789-3.542-7.464-6.36-3.718-4.356 5.791-7.8 10.662-7.906 18.307-.074 5.428-.026 10.861-.039 16.29-.011 4.74 7.355 4.747 7.366 0z" fill="#ffb942"/><path d="m131.677 93.076c-.012-5.15 0-10.3-.037-15.451-.042-6.575-3.165-10.46-6.9-15.429-2.85-3.789 3.542-7.464 6.36-3.718 4.356 5.791 7.8 10.662 7.906 18.307.074 5.428.026 10.861.039 16.29.011 4.74-7.355 4.747-7.366 0z" fill="#ffb942"/><path d="m123.803 66.965c4.872 0 8.822-3.9498 8.822-8.822 0-4.8723-3.95-8.822-8.822-8.822s-8.822 3.9497-8.822 8.822c0 4.8722 3.95 8.822 8.822 8.822z" fill="#fff"/><path d="m123.803 62.247c2.267 0 4.104-1.8374 4.104-4.104s-1.837-4.104-4.104-4.104-4.104 1.8374-4.104 4.104 1.837 4.104 4.104 4.104z" fill="#75a7d8"/><path d="m124.676 52.11v-24h3.231l5.102 12v13.929l-2.083 1.821z" fill="#fff"/></g></svg>