<svg fill="none" height="130" viewBox="0 0 350 130" width="350" xmlns="http://www.w3.org/2000/svg" xmlns:xlink="http://www.w3.org/1999/xlink"><clipPath id="a"><path d="m0 0h350v130h-350z"/></clipPath><g clip-path="url(#a)"><path d="m40.918 87.1c-3.9421-12.2692-12.5345-22.5054-23.935-28.514-5.2989-2.736-11.05554-4.4748-16.983-5.13v76.544h51.253c-1.6081-2.839-2.9167-5.837-3.905-8.947-3.462-11.005-2.954-22.953-6.43-33.953z" fill="#fce4e4"/><path d="m318.2 85.06c-12.5-.569-24.453 4.489-36.338 8.4-28.94 9.484-59.614 12.474-89.841 8.757-6.164-.763-12.4-1.837-17.975-4.566s-10.5-7.335-12.344-13.266c-2.348-7.547.623-15.812 5.1-22.325s10.412-11.905 15.055-18.3c4.441-6.2873 7.601-13.3879 9.298-20.8963 1.696-7.5084 1.898-15.2775.592-22.8637h-191.747v53.456c5.92746.6552 11.6841 2.3941 16.983 5.13 11.4005 6.0086 19.9929 16.2448 23.935 28.514 3.476 11 2.968 22.953 6.43 33.958.9886 3.108 2.2973 6.105 3.905 8.942h298.747v-29.48c-8.247-8.88-19.719-14.911-31.8-15.46z" fill="#ffbacc"/><path d="m191.747 0c2.636 15.3196-.922 31.0586-9.891 43.755-4.643 6.4-10.576 11.789-15.055 18.3s-7.449 14.778-5.1 22.325c1.845 5.931 6.765 10.537 12.344 13.266s11.811 3.8 17.975 4.566c30.227 3.717 60.901.727 89.841-8.757 11.885-3.906 23.84-8.964 36.338-8.4 12.083.55 23.554 6.581 31.8 15.46v-100.515z" fill="#ff9eb1"/><path d="m335.675 6.896h-104.5v115.182h104.5z" fill="#fff"/><path d="m327.675 28.718v-1.59l-1.324 1.59z" fill="#349be8"/><path d="m251.508 28.718h40.252l11.513-13.822h-64.098v76.948l12.333-14.805z" fill="#349be8"/><g fill="#58afff"><path d="m251.508 77.039 40.252-48.321h-40.252z"/><path d="m327.675 56.074-48.317 58.003h48.317z"/><path d="m327.675 28.718h-1.324l-71.105 85.359h12.527l59.902-71.91z"/><path d="m326.351 28.718 1.324-1.59v-12.232h-24.402l-11.513 13.822z"/><path d="m251.508 114.077v-37.038l-12.333 14.805v22.233z"/></g><path d="m291.76 28.718-40.252 48.321v37.038h3.738l71.105-85.359z" fill="#85cbff"/><path d="m327.675 42.167-59.902 71.91h11.585l48.317-58.003z" fill="#85cbff"/><path d="m286.627 6.909h-6.048v114.237h6.048z" fill="#fff"/><path d="m231.811 61.143v6.048h102.864v-6.048z" fill="#fff"/><path d="m160.405 67.571 4.414 24.759h-4.414l-9.461-24.759z" fill="#fff"/><path d="m149.694 55.134h-21v5.979h21z" fill="#fff"/><path d="m149.694 58.123h-21v2.989h21z" fill="#b9dded"/><path d="m131.111 45.623h-6.833v25h6.833z" fill="#296c89"/><path d="m131.111 59.835h-6.833v10.788h6.833z" fill="#175266"/><path d="m238.361 51.39v11l32.139-3.944c1.511-.185 1.511-2.927 0-3.112z" fill="#175266"/><path d="m234.028 44.995h-73.667v22.833h73.667z" fill="#ff6b6b"/><path d="m234.028 58.902h-73.667v8.926h73.667z" fill="#d34242"/><path d="m240.861 43.911h-6.833v25h6.833z" fill="#296c89"/><path d="m240.861 58.123h-6.833v10.788h6.833z" fill="#175266"/><path d="m160.361 42.473h-13.167v26.438h13.167z" fill="#296c89"/><path d="m154.361 94.555h-7.167v-35.653h13.167v10.009z" fill="#175266"/><path d="m195.392 47.516h-27.646c-1.617 0-2.927 1.3105-2.927 2.927s1.31 2.927 2.927 2.927h27.646c1.617 0 2.927-1.3105 2.927-2.927s-1.31-2.927-2.927-2.927z" fill="#ffbacc"/><path d="m207.392 47.516h-2.536c-1.617 0-2.927 1.3105-2.927 2.927s1.31 2.927 2.927 2.927h2.536c1.617 0 2.927-1.3105 2.927-2.927s-1.31-2.927-2.927-2.927z" fill="#ffbacc"/></g></svg>