<svg fill="none" height="130" viewBox="0 0 350 130" width="350" xmlns="http://www.w3.org/2000/svg" xmlns:xlink="http://www.w3.org/1999/xlink"><clipPath id="a"><path d="m0 0h350v130h-350z"/></clipPath><g clip-path="url(#a)"><path d="m91.9 113.951c4.408-7.367 5.454-17.364.4-24.3-5.7-7.831-16.536-9.233-26-11.316-27.263-6.006-51.366-23.829-66.3-47.335v98.984h75.152c6.477-4.398 12.742-9.345 16.748-16.033z" fill="#ffdaa9"/><path d="m350-.0130005h-291.378c-1.7782 3.9646505-2.6762 8.2675205-2.6322 12.6125005.044 4.3449 1.029 8.6287 2.8872 12.5565 5.6 11.646 17.137 19.329 29.008 24.433 47.97 20.62 104.093 7.147 154.479 20.841 5.445 1.48 10.93 3.34 15.354 6.843s7.656 8.947 7.2 14.572c-.473 5.8-4.761 10.732-9.849 13.554s-10.931 3.9-16.656 4.93l-108.876 19.66h220.463z" fill="#ffb942"/><path d="m255.067 105.4c5.088-2.822 9.377-7.755 9.849-13.554.459-5.624-2.774-11.069-7.2-14.572s-9.908-5.363-15.354-6.843c-50.386-13.694-106.51-.22-154.479-20.841-11.872-5.1-23.41-12.786-29.008-24.433-1.858-3.9281-2.8427-8.2121-2.8864-12.5573-.0437-4.34508.8547-8.64806 2.6334-12.6127005h-58.622v31.0130005c14.934 23.5 39.037 41.326 66.3 47.328 9.461 2.083 20.294 3.485 26 11.316 5.055 6.94 4.01 16.936-.4 24.3-4 6.688-10.267 11.635-16.744 16.036h54.383l108.876-19.66c5.721-1.026 11.564-2.101 16.652-4.92z" fill="#ffc97b"/><path d="m304.175 130.013 45.74-19.84v-9.901l-68.568 29.741z" fill="#b3c9e8"/><path d="m126.999 99.995v9.902l45.18 20.116h22.239z" fill="#c6d8f4"/><path d="m281.347 130.013 68.568-29.741-110.315-49.116-112.601 48.839 67.419 30.018z" fill="#fff"/><path d="m349.915 60.272.085 20.902-112.601 48.839-.085-20.902z" fill="#754727"/><path d="m237.314 109.111.085 20.902-110.316-49.116-.084-20.901z" fill="#f4a269"/><path d="m349.915 60.272-112.601 48.839-110.315-49.115 112.601-48.84z" fill="#452f68"/><path d="m349.78 60.379-14.068 6.102-22.071-9.826 14.069-6.102z" fill="#b57d57"/><path d="m162.838 63.886-13.926 6.04-22.063-9.823 13.926-6.04z" fill="#b57d57"/><path d="m283.583 30.907-14.076 6.105-22.07-9.82-22.078-9.817 14.098-6.115z" fill="#a5704c"/><path d="m247.422 27.199-14.076 6.105 22.063 9.823-44.141-19.64 14.091-6.112z" fill="#bf8660"/><path d="m255.394 43.134-14.069 6.102-22.07-9.82-22.078-9.817 14.091-6.112z" fill="#a5704c"/><path d="m291.563 46.838-14.076 6.106-22.071-9.82-22.07-9.82 14.076-6.105 22.063 9.823z" fill="#b57d57"/><path d="m219.24 39.422-14.084 6.109 22.063 9.823-44.133-19.643 14.091-6.112z" fill="#b57d57"/><path d="m327.71 50.553-14.069 6.102-22.063-9.823-22.071-9.82 14.076-6.105z" fill="#ce956e"/><path d="m227.212 55.357-14.069 6.102-22.078-9.816-22.07-9.82 14.091-6.112z" fill="#ce956e"/><path d="m263.381 59.062-14.076 6.105-22.071-9.82-22.078-9.816 14.084-6.109 22.063 9.823z" fill="#bf8660"/><path d="m299.543 62.77-14.084 6.109-22.063-9.823-22.071-9.82 14.069-6.102 22.078 9.816z" fill="#ce956e"/><path d="m335.712 66.481-14.091 6.112-44.134-19.649 14.076-6.106 22.071 9.82z" fill="#a5704c"/><path d="m198.992 67.597-14.076 6.105-22.07-9.82-22.071-9.819 14.091-6.112z" fill="#ce956e"/><path d="m235.191 71.289-14.068 6.102-44.149-19.637 14.084-6.108 22.063 9.823z" fill="#a5704c"/><path d="m321.621 72.593-14.091 6.112-22.071-9.826 14.084-6.109-22.063-9.823z" fill="#b57d57"/><path d="m271.361 74.994-14.084 6.108-22.063-9.823-22.071-9.82 14.069-6.102 22.071 9.82z" fill="#b57d57"/><path d="m307.53 78.705-14.091 6.112-44.134-19.65 14.076-6.105 22.071 9.82z" fill="#a5704c"/><path d="m206.972 83.529-13.934 6.043-44.126-19.646 13.926-6.04 22.063 9.823z" fill="#bf8660"/><path d="m193.038 89.572-.142.062-44.141-19.64.157-.068z" fill="#b57d57"/><path d="m293.439 84.817-14.091 6.112-22.071-9.827 14.084-6.108-22.064-9.823z" fill="#bf8660"/><path d="m243.134 87.237-14.076 6.105-22.064-9.823-22.078-9.817 14.076-6.105z" fill="#bf8660"/><path d="m279.348 90.929-14.091 6.112-44.134-19.65 14.068-6.102 22.079 9.817z" fill="#ce956e"/><path d="m191.058 51.646-14.084 6.108 44.126 19.647 44.157 19.64-14.129 6.128-22.07-9.827 14.076-6.105-44.127-19.646-44.141-19.64 14.129-6.128z" fill="#b57d57"/><path d="m251.128 103.169-13.956 6.053-44.134-19.65 13.934-6.043 22.071 9.82z" fill="#ce956e"/><path d="m237.172 109.222-.142.062-44.134-19.65.142-.062z" fill="#b57d57"/></g></svg>