<svg fill="none" height="130" viewBox="0 0 350 130" width="350" xmlns="http://www.w3.org/2000/svg" xmlns:xlink="http://www.w3.org/1999/xlink"><clipPath id="a"><path d="m0 0h350v130h-350z"/></clipPath><g clip-path="url(#a)"><path d="m68.394 18.578c18.92-.309 37.442 4.893 56.183 7.51s39.047 2.318 55.019-7.829c6.86-4.465 12.297-10.80114 15.669-18.259h-195.265v48.522c17.787-18.277 42.845-29.522 68.394-29.944z" fill="#dbf3f5"/><path d="m111.511 81.9c26.24-10.512 55.471-9.05 83.735-9.461s58.349-3.553 80.522-21.085c15.721-12.431 25.5-31.442 27.99-51.354h-108.493c-3.371 7.45771-8.807 13.7942-15.665 18.26-15.973 10.147-36.278 10.446-55.019 7.829s-37.263-7.82-56.183-7.51c-25.553.421-50.611 11.666-68.398 29.943v81.478h60.278c10.5817-21.788 28.8215-38.9124 51.233-48.1z" fill="#8edada"/><path d="m350 0h-46.242c-2.492 19.912-12.269 38.923-27.99 51.354-22.173 17.533-52.258 20.674-80.522 21.085s-57.495-1.051-83.735 9.461c-22.4115 9.1876-40.6513 26.312-51.233 48.1h289.722z" fill="#5ecccd"/><path d="m347.706 11.922h-142.663c-1.267 0-2.294 1.0271-2.294 2.294v113.49c0 1.267 1.027 2.294 2.294 2.294h142.663c1.267 0 2.294-1.027 2.294-2.294v-113.49c0-1.2669-1.027-2.294-2.294-2.294z" fill="#ffbacc"/><path d="m220.838 32.397h-14.413c-2.03 0-3.676 1.6458-3.676 3.676v8.292c0 2.0302 1.646 3.676 3.676 3.676h14.413c2.03 0 3.676-1.6458 3.676-3.676v-8.292c0-2.0302-1.646-3.676-3.676-3.676z" fill="#ff8383"/><path d="m220.838 73.317h-14.413c-2.03 0-3.676 1.6458-3.676 3.676v8.293c0 2.0302 1.646 3.676 3.676 3.676h14.413c2.03 0 3.676-1.6458 3.676-3.676v-8.293c0-2.0302-1.646-3.676-3.676-3.676z" fill="#ff8383"/><path d="m350 23.848v-8.248c.007-.9679-.371-1.8989-1.05-2.5882-.68-.6894-1.605-1.0807-2.573-1.0878h-37.867c-.968.0071-1.893.3984-2.573 1.0878-.679.6893-1.057 1.6203-1.05 2.5882v8.25c-.007.9679.371 1.8989 1.05 2.5882.68.6894 1.605 1.0807 2.573 1.0878h37.867c.479-.0035.953-.1015 1.395-.2882.442-.1868.842-.4587 1.178-.8003.337-.3415.603-.746.783-1.1903s.271-.9198.267-1.3992z" fill="#ff6b6b"/><path d="m220.838 114.267h-14.413c-2.03 0-3.676 1.646-3.676 3.676v8.351c0 2.03 1.646 3.676 3.676 3.676h14.413c2.03 0 3.676-1.646 3.676-3.676v-8.351c0-2.03-1.646-3.676-3.676-3.676z" fill="#ed5f5f"/><path d="m250.048 23.864v-8.264c0-.9749-.387-1.9099-1.077-2.5993-.689-.6894-1.624-1.0767-2.599-1.0767h-39.948c-.975 0-1.91.3873-2.599 1.0767-.69.6894-1.077 1.6244-1.077 2.5993v8.291c0 .4829.095.9611.28 1.4072s.456.8515.797 1.1928c.342.3414.747.6121 1.194.7968.446.1846.924.2795 1.407.2792l39.948-.025c.483-.0003.961-.0956 1.407-.2806.445-.185.851-.4559 1.192-.7975.341-.3415.611-.7469.796-1.193.184-.4461.279-.9241.279-1.4069z" fill="#ff6b6b"/><path d="m253.817 32.4h-21.858c-.975 0-1.91.3873-2.599 1.0767-.69.6894-1.077 1.6244-1.077 2.5993v8.274c0 .4828.095.9609.28 1.407.185.446.456.8513.797 1.1927.341.3413.747.6121 1.193.7968.446.1846.924.2796 1.407.2795l18.088-.005v-.008l21.861-.013c.975-.0005 1.909-.3881 2.598-1.0774s1.076-1.624 1.076-2.5986v-8.265c0-.4828-.095-.9609-.28-1.407-.185-.446-.456-.8513-.797-1.1927-.341-.3413-.747-.6121-1.193-.7968-.446-.1846-.924-.2796-1.407-.2795l-18.089.006z" fill="#ff6b6b"/><path d="m250.048 64.815v-8.268c0-.9749-.387-1.9099-1.077-2.5993-.689-.6894-1.624-1.0767-2.599-1.0767h-39.948c-.975 0-1.91.3873-2.599 1.0767-.69.6894-1.077 1.6244-1.077 2.5993v8.292c0 .4829.095.9611.28 1.4072s.456.8515.797 1.1928c.342.3414.747.6121 1.194.7968.446.1846.924.2795 1.407.2792l39.948-.024c.975-.0005 1.909-.388 2.598-1.0774.689-.6893 1.076-1.624 1.076-2.5986z" fill="#ed5f5f"/><path d="m253.817 73.346h-21.858c-.975 0-1.91.3873-2.599 1.0767-.69.6894-1.077 1.6244-1.077 2.5993v8.278c0 .4828.095.9609.28 1.407.185.446.456.8513.797 1.1927.341.3413.747.6121 1.193.7968.446.1846.924.2796 1.407.2795l18.088-.005v-.008h22.646c.766 0 1.501-.3044 2.043-.8462s.846-1.2766.846-2.0428v-9.065c0-.4828-.095-.9609-.28-1.407-.185-.446-.456-.8513-.797-1.1927-.341-.3413-.747-.6121-1.193-.7968-.446-.1846-.924-.2796-1.407-.2795l-18.089.005z" fill="#ed5f5f"/><path d="m250.048 105.777v-8.277c0-.975-.387-1.91-1.077-2.5993-.689-.6894-1.624-1.0767-2.599-1.0767h-39.948c-.975 0-1.91.3873-2.599 1.0767-.69.6893-1.077 1.6243-1.077 2.5993v8.293c0 .483.095.961.28 1.407s.456.851.797 1.193c.341.341.747.612 1.193.796.446.185.924.28 1.407.28l18.992-.006.981-.007h19.974c.483 0 .961-.095 1.407-.28.447-.185.852-.456 1.193-.798.342-.341.612-.747.797-1.193.185-.447.279-.925.279-1.408z" fill="#ff6b6b"/><path d="m253.817 114.3h-21.858c-.975 0-1.91.387-2.599 1.077-.69.689-1.077 1.624-1.077 2.599v8.277c0 .483.095.961.28 1.407s.456.852.797 1.193c.342.341.747.612 1.194.797.446.184.924.279 1.407.279l39.948-.024c.975-.001 1.909-.388 2.598-1.077.689-.69 1.076-1.624 1.076-2.599v-8.269c0-.483-.095-.961-.28-1.407s-.456-.851-.797-1.193c-.341-.341-.747-.612-1.193-.796-.446-.185-.924-.28-1.407-.28l-18.089.005z" fill="#ed5f5f"/><path d="m301.117 23.848v-8.248c0-.9749-.387-1.9099-1.077-2.5993-.689-.6894-1.624-1.0767-2.599-1.0767h-39.948c-.975 0-1.91.3873-2.599 1.0767-.69.6894-1.077 1.6244-1.077 2.5993v8.263c0 .4828.095.9609.28 1.407.185.446.456.8513.797 1.1927s.747.6121 1.193.7968.924.2796 1.407.2795l18.089-.005v-.008h21.858c.483 0 .961-.0951 1.407-.28s.852-.4558 1.193-.7974c.341-.3415.612-.747.797-1.1932.184-.4463.279-.9245.279-1.4074z" fill="#ff6b6b"/><path d="m279.352 36.043v8.28c0 .4828.095.9609.28 1.4071.184.4461.455.8514.796 1.1929.342.3414.747.6123 1.193.7971s.924.2799 1.407.2799h39.948c.483 0 .961-.0951 1.407-.2798.446-.1848.851-.4555 1.192-.7969.342-.3413.612-.7466.797-1.1926.185-.4459.28-.924.28-1.4067v-8.294c0-.4828-.095-.9609-.28-1.407-.185-.446-.456-.8513-.797-1.1927-.341-.3413-.747-.6121-1.193-.7968-.446-.1846-.924-.2796-1.407-.2795l-18.992.006-.981.007h-19.974c-.975 0-1.91.3873-2.599 1.0767-.69.6894-1.077 1.6244-1.077 2.5993z" fill="#ed5f5f"/><path d="m253.817 64.811c0 .4828.095.9609.28 1.407.185.446.456.8513.797 1.1927.341.3413.747.6121 1.193.7968.446.1846.924.2796 1.407.2795l18.089-.005v-.008h21.858c.975 0 1.91-.3873 2.599-1.0767.69-.6894 1.077-1.6244 1.077-2.5993v-8.278c0-.4828-.095-.9609-.28-1.407-.185-.446-.456-.8513-.797-1.1927-.341-.3413-.747-.6121-1.193-.7968s-.924-.2796-1.407-.2795l-18.992.006-.981.007h-19.974c-.975 0-1.91.3873-2.599 1.0767-.69.6894-1.077 1.6244-1.077 2.5993z" fill="#ff8383"/><path d="m279.352 76.994v8.28c0 .9749.387 1.9099 1.077 2.5993.689.6894 1.624 1.0767 2.599 1.0767h39.948c.975 0 1.91-.3873 2.599-1.0767.69-.6894 1.077-1.6244 1.077-2.5993v-8.293c0-.4828-.095-.9609-.28-1.407-.185-.446-.456-.8513-.797-1.1927-.341-.3413-.747-.6121-1.193-.7968s-.924-.2796-1.407-.2795l-18.992.006-.981.007h-19.974c-.975 0-1.91.3873-2.599 1.0767-.69.6894-1.077 1.6244-1.077 2.5993z" fill="#ff6b6b"/><path d="m253.817 105.762c0 .483.095.961.28 1.407s.456.851.797 1.193c.341.341.747.612 1.193.796.446.185.924.28 1.407.28l18.089-.005v-.008h21.858c.975 0 1.91-.387 2.599-1.077.69-.689 1.077-1.624 1.077-2.599v-8.279c0-.4828-.095-.9609-.28-1.407-.185-.446-.456-.8513-.797-1.1927-.341-.3413-.747-.6121-1.193-.7968-.446-.1846-.924-.2796-1.407-.2795l-18.992.006-.981.007-19.977.012c-.975.0005-1.909.3881-2.598 1.0774s-1.076 1.624-1.076 2.5986z" fill="#ff8383"/><path d="m279.352 117.944v8.28c0 .975.387 1.91 1.077 2.599.689.69 1.624 1.077 2.599 1.077h39.948c.975 0 1.91-.387 2.599-1.077.69-.689 1.077-1.624 1.077-2.599v-8.293c0-.483-.095-.961-.28-1.407s-.456-.851-.797-1.193c-.341-.341-.747-.612-1.193-.796-.446-.185-.924-.28-1.407-.28l-18.992.006-.981.007h-19.974c-.975 0-1.91.387-2.599 1.077-.69.689-1.077 1.624-1.077 2.599z" fill="#ff8383"/><path d="m350 63.848v-8.248c.007-.9679-.371-1.8989-1.05-2.5882-.68-.6894-1.605-1.0807-2.573-1.0878h-37.867c-.968.0071-1.893.3984-2.573 1.0878-.679.6893-1.057 1.6203-1.05 2.5882v8.25c-.007.9679.371 1.8989 1.05 2.5882.68.6894 1.605 1.0807 2.573 1.0878h37.867c.479-.0035.953-.1015 1.395-.2882.442-.1868.842-.4587 1.178-.8003.337-.3415.603-.746.783-1.1903s.271-.9198.267-1.3992z" fill="#ff6b6b"/><path d="m350 105.848v-8.248c.007-.9679-.371-1.8989-1.05-2.5882-.68-.6894-1.605-1.0807-2.573-1.0878h-37.867c-.968.0071-1.893.3984-2.573 1.0878-.679.6893-1.057 1.6203-1.05 2.5882v8.25c-.007.968.371 1.899 1.05 2.588.68.69 1.605 1.081 2.573 1.088h37.867c.479-.004.953-.101 1.395-.288s.842-.459 1.178-.8c.337-.342.603-.747.783-1.191s.271-.92.267-1.399z" fill="#ff6b6b"/><path d="m331.749 36.073v8.293c-.072.8946.212 1.7815.788 2.4692.577.6878 1.401 1.1212 2.294 1.2068h12.087c.894-.0856 1.718-.5192 2.294-1.2071.577-.688.86-1.5751.788-2.4699v-8.292c.072-.8946-.212-1.7815-.788-2.4692-.577-.6878-1.401-1.1212-2.294-1.2068h-12.087c-.893.0856-1.717.519-2.294 1.2068-.576.6877-.86 1.5746-.788 2.4692z" fill="#ff8383"/><path d="m331.749 76.993v8.294c-.072.8946.212 1.7815.788 2.4692.577.6877 1.401 1.1212 2.294 1.2068h12.087c.894-.0856 1.718-.5192 2.294-1.2072.577-.6879.86-1.575.788-2.4698v-8.293c.072-.8946-.212-1.7815-.788-2.4692-.577-.6878-1.401-1.1212-2.294-1.2068h-12.087c-.893.0856-1.717.519-2.294 1.2068-.576.6877-.86 1.5746-.788 2.4692z" fill="#ff8383"/><path d="m331.749 117.943v8.352c-.072.895.212 1.781.788 2.469.577.688 1.401 1.121 2.294 1.207h12.087c.893-.086 1.717-.519 2.294-1.207.576-.688.86-1.574.788-2.469v-8.352c.072-.895-.212-1.782-.788-2.469-.577-.688-1.401-1.121-2.294-1.207h-12.087c-.893.086-1.717.519-2.294 1.207-.576.687-.86 1.574-.788 2.469z" fill="#ed5f5f"/></g></svg>