<svg fill="none" height="130" viewBox="0 0 350 130" width="350" xmlns="http://www.w3.org/2000/svg" xmlns:xlink="http://www.w3.org/1999/xlink"><clipPath id="a"><path d="m0 0h350v130h-350z"/></clipPath><g clip-path="url(#a)"><path d="m290.41 75.17c-13.77-10.35-32.27-10.93-49.48-11.55s-35.93-2.32-48.51-14.09c-6.81-6.37-11-15-15-23.42l-12.42-26.11h-165v36.4c5.91864-5.4587 12.6701-9.9383 20-13.27 12.56-5.63 26.63-7.23 40.37-6.58 15.34.73 30.78 4.3 43.89 12.29s23.72 20.69 27.29 35.62c1.83 7.66 1.81 15.63 3.07 23.4s4.13 15.76 10.3 20.65c6.82 5.41 16.19 6 24.29 9.18 6.428 2.587 12.053 6.836 16.3 12.31h126.06c.025-7.198-.645-14.381-2-21.45-2.57-12.87-8.67-25.49-19.16-33.38z" fill="#c8e3fc"/><path d="m169.18 117.69c-8.1-3.19-17.47-3.76-24.29-9.18-6.17-4.9-9-12.88-10.3-20.65s-1.24-15.75-3.07-23.4c-3.57-14.93-14.18-27.63-27.29-35.62s-28.56-11.56-43.89-12.29c-13.75-.65-27.81 1-40.37 6.58-7.3193 3.3345-14.06046 7.814-19.97 13.27v93.6h185.51c-4.256-5.479-9.891-9.727-16.33-12.31z" fill="#e5f1fe"/><path d="m350 0h-185l12.45 26.1c4 8.42 8.18 17 15 23.42 12.55 11.78 31.26 13.48 48.47 14.11s35.72 1.2 49.48 11.55c10.49 7.89 16.6 20.51 19.21 33.37 1.355 7.069 2.025 14.252 2 21.45h38.39z" fill="#83beff"/><path d="m298.76 60.2201h-66c-2.387 0-4.676-.9483-6.364-2.6361s-2.636-3.977-2.636-6.3639v-18.6701c0-2.3869.948-4.6761 2.636-6.3639s3.977-2.6361 6.364-2.6361h66c2.387 0 4.676.9483 6.364 2.6361s2.636 3.977 2.636 6.3639v18.6701c0 2.3869-.948 4.6761-2.636 6.3639s-3.977 2.6361-6.364 2.6361zm-65-10h64v-16.6701h-64z" fill="#fff"/><path d="m330.33 47.88h-128c-1.53 0-2.77 1.2402-2.77 2.77v12.46c0 1.5298 1.24 2.77 2.77 2.77h128c1.53 0 2.77-1.2402 2.77-2.77v-12.46c0-1.5298-1.24-2.77-2.77-2.77z" fill="#e34c5d"/><path d="m204.43 65.88h124.33v52.67c0 1.148-.456 2.25-1.268 3.062s-1.914 1.268-3.062 1.268h-115.67c-1.148 0-2.25-.456-3.062-1.268s-1.268-1.914-1.268-3.062z" fill="#e34c5d"/><path d="m328.76 65.88h-124.33v7h124.33z" fill="#8a3131"/><path d="m268.06 58.88h-4.43c-2.281 0-4.13 1.8491-4.13 4.13v10.41c0 2.2809 1.849 4.13 4.13 4.13h4.43c2.281 0 4.13-1.8491 4.13-4.13v-10.41c0-2.2809-1.849-4.13-4.13-4.13z" fill="#fff"/></g></svg>