<svg fill="none" height="130" viewBox="0 0 350 130" width="350" xmlns="http://www.w3.org/2000/svg" xmlns:xlink="http://www.w3.org/1999/xlink"><clipPath id="a"><path d="m0 0h350v130h-350z"/></clipPath><g clip-path="url(#a)"><path d="m52.592 60.109c12.186 1.183 25.384 4.911 36.026-1.143 6.957-3.957 11.336-11.722 12.067-19.692s-1.921-16.033-6.45-22.632c-4.807-7.004-11.426-12.264-18.752-16.642h-75.483v73.185c15.5748-10.118 34.0923-14.722 52.592-13.076z" fill="#c9e3fc"/><path d="m350 0h-80.551c4.181 9.94618 5.555 20.8484 3.973 31.521-1.448 8.8667-4.889 17.2893-10.064 24.6329-5.176 7.3437-11.95 13.4169-19.814 17.7621-15.3 8.3-33.426 9.355-50.82 8.853s-34.966-2.364-52.083.769c-18.047 3.3-35.455 12.655-45.926 27.72-3.9098 5.661-6.6856 12.025-8.174 18.742h263.459z" fill="#58afff"/><path d="m140.64 83.539c17.117-3.133 34.689-1.271 52.083-.769s35.524-.557 50.82-8.853c7.863-4.3452 14.638-10.4184 19.814-17.7621 5.175-7.3436 8.616-15.7662 10.064-24.6329 1.583-10.6729.209-21.57543-3.972-31.522h-193.966c7.326 4.378 13.945 9.638 18.752 16.643 4.529 6.6 7.181 14.662 6.45 22.632s-5.109 15.735-12.067 19.692c-10.643 6.053-23.84 2.326-36.026 1.143-18.4996-1.6463-37.0171 2.9573-52.592 13.075v56.815h86.541c1.4879-6.716 4.263-13.08 8.172-18.741 10.472-15.065 27.88-24.416 45.927-27.72z" fill="#83beff"/><path d="m244.25 51.7939c2.3 10.429 4.8 20.818 7.2 31.225.363 1.2373.313 2.5591-.142 3.7654-.455 1.2064-1.291 2.2316-2.381 2.9206 3.783.422 7.948-2.567 6.772-7.666-2.4-10.407-4.9-20.8-7.2-31.225-3.014-13.677 4.332-26.789 15.865-30.692-13.904 1.796-23.484 16.378-20.114 31.672z" fill="#b9dded"/><path d="m261.126 7.36599c18.3-2.947 37.5 9.95201 42.544 30.23901.388 1.2214.361 2.537-.076 3.7416-.438 1.2046-1.261 2.2307-2.343 2.9184 3.8.416 7.933-2.561 6.669-7.64-5.442-21.866-27.311-35.15001-46.794-29.25901z" fill="#b9dded"/><path d="m303.67 37.6c-5.049-20.287-24.239-33.186-42.544-30.239-3.001.90921-5.86 2.2355-8.493 3.94-5.091 3.3767-9.308 7.9128-12.305 13.2359-2.998 5.3231-4.69 11.2812-4.937 17.3851-.343 7.193 1.734 14.25 3.339 21.212l4.995 21.666c.217 1.2705.842 2.4358 1.78 3.3198.939.884 2.139 1.4386 3.42 1.5802 1.09-.689 1.926-1.7143 2.381-2.9206.455-1.2064.505-2.5282.142-3.7654-2.4-10.407-4.9-20.8-7.2-31.225-3.37-15.292 6.21-29.876 20.115-31.672 3.496-1.1738 7.225-1.4749 10.864-.877 10.113 1.6 18.143 9.8 20.717 20.142.246 1.274.894 2.4354 1.849 3.3136.955.8783 2.167 1.4269 3.457 1.5654 1.082-.6876 1.906-1.7138 2.344-2.9186.437-1.2049.464-2.5207.076-3.7424z" fill="#fff"/><path d="m306.905 32.8143-12.174 2.8072.293 1.2677 12.173-2.8071z" fill="#b9dded"/><path d="m250.175 61.6603 56.038-12.9218c2.843-.6555 5.829-.1549 8.303 1.3917s4.232 4.0126 4.887 6.8553l5.755 24.9581c1.728 7.4946.409 15.3688-3.669 21.8904-4.077 6.521-10.578 11.156-18.073 12.884l-20.958 4.833c-7.495 1.728-15.369.408-21.89-3.669-6.522-4.078-11.156-10.579-12.885-18.0733l-5.755-24.958c-.655-2.8428-.155-5.8296 1.392-8.3032 1.547-2.4737 4.013-4.2317 6.855-4.8872z" fill="#e08d14"/><path d="m242.655 63.3953 53.216-12.2713c2.843-.6556 5.83-.1549 8.303 1.3917 2.474 1.5466 4.232 4.0125 4.887 6.8553l5.756 24.9581c.855 3.7109.972 7.5541.342 11.31-.629 3.756-1.993 7.3509-4.012 10.5799s-4.654 6.029-7.755 8.24-6.607 3.789-10.318 4.645l-18.137 4.182c-7.494 1.728-15.369.408-21.89-3.669-6.522-4.078-11.156-10.579-12.884-18.073l-5.756-24.9583c-.655-2.8428-.154-5.8296 1.392-8.3032 1.547-2.4737 4.013-4.2317 6.856-4.8872z" fill="#ffb942"/><path d="m283.5 82.493c-.368-1.5956-1.153-3.0651-2.274-4.2587-1.121-1.1935-2.539-2.0686-4.108-2.5359-1.57-.4674-3.235-.5103-4.826-.1245-1.592.3858-3.052 1.1866-4.234 2.3208-1.181 1.1343-2.04 2.5613-2.49 4.1358s-.475 3.2401-.071 4.8272c.403 1.5871 1.22 3.0389 2.367 4.2075s2.584 2.0121 4.163 2.4448l1.343 5.826c.13.5618.368 1.093.703 1.562s.759.868 1.248 1.174c.488.306 1.033.512 1.601.607.569.096 1.151.078 1.712-.052.562-.129 1.093-.368 1.563-.703.469-.334.868-.758 1.174-1.247.305-.489.512-1.0332.607-1.6018s.078-1.1504-.052-1.7122l-1.343-5.826c1.258-1.1033 2.193-2.5269 2.707-4.1193.514-1.5925.586-3.2943.21-4.9247z" fill="#296c89"/><path d="m246.81 72.0034-1.37.3157c-2.959.6825-4.806 3.6353-4.123 6.5952l2.805 12.1657c.683 2.9599 3.636 4.8061 6.595 4.1236l1.37-.3157c2.959-.6826 4.806-3.6353 4.123-6.5952l-2.805-12.1658c-.683-2.9599-3.636-4.806-6.595-4.1235z" fill="#ffdaa9"/><path d="m207.054 78.009c-4.019.1465-7.904 1.4814-11.165 3.8361-3.26 2.3547-5.749 5.6233-7.152 9.3925-1.402 3.7692-1.656 7.8697-.728 11.7834.928 3.913 2.995 7.463 5.941 10.201 2.945 2.739 6.637 4.542 10.607 5.182 3.971.64 8.042.089 11.699-1.584 3.657-1.674 6.735-4.394 8.846-7.817 2.111-3.424 3.16-7.396 3.013-11.415-.097-2.6685-.719-5.2917-1.83-7.7198s-2.69-4.6136-4.645-6.4317c-1.956-1.8181-4.251-3.2332-6.753-4.1644-2.503-.9313-5.165-1.3605-7.833-1.2631zm12.9 26.972c-1.171 2.084-2.857 3.832-4.898 5.077-2.04 1.245-4.366 1.944-6.755 2.031s-4.76-.441-6.885-1.534c-2.126-1.092-3.936-2.713-5.255-4.706-.344-.537-.54-1.156-.567-1.794-.027-.637.115-1.271.412-1.835.297-.565.739-1.041 1.279-1.38.541-.338 1.162-.527 1.8-.548l17.547-.64c.637-.0253 1.27.1186 1.834.417.563.299 1.038.741 1.375 1.283.337.541.525 1.162.544 1.8.019.637-.131 1.268-.435 1.829z" fill="#e08d14"/><path d="m209.796 18.4835-9.813.3579 2.551 69.9535 9.814-.3579z" fill="#ffb942"/><path d="m209.795 18.4836-4.227.1542 2.552 69.9535 4.227-.1542z" fill="#e08d14"/><path d="m205.055 78.082c-4.019.1465-7.904 1.4814-11.165 3.8361-3.26 2.3547-5.749 5.6233-7.152 9.3925-1.402 3.7692-1.656 7.8697-.728 11.7834.928 3.913 2.995 7.463 5.941 10.201 2.945 2.739 6.637 4.542 10.607 5.182 3.971.64 8.042.089 11.699-1.584 3.657-1.674 6.735-4.394 8.846-7.817 2.111-3.424 3.16-7.396 3.013-11.415-.097-2.6685-.719-5.2917-1.83-7.7198s-2.69-4.6136-4.645-6.4317c-1.956-1.8181-4.251-3.2332-6.753-4.1644-2.503-.9313-5.165-1.3605-7.833-1.2631zm12.9 26.972c-1.171 2.084-2.857 3.832-4.898 5.077-2.04 1.245-4.366 1.944-6.755 2.031s-4.76-.441-6.885-1.534c-2.126-1.092-3.936-2.713-5.255-4.706-.344-.537-.54-1.156-.567-1.794-.027-.637.115-1.271.412-1.835.297-.565.739-1.041 1.279-1.38.541-.338 1.162-.527 1.8-.548l17.547-.64c.637-.0255 1.27.1183 1.834.417.564.298 1.038.741 1.376 1.282.337.542.525 1.163.544 1.8.019.638-.131 1.269-.435 1.83z" fill="#ffb942"/><path d="m209.847 19.8818-9.814.3579.082 2.2486 9.814-.358z" fill="#e08d14"/><path d="m190.753 22.8289 9.362-.3414.319 8.7442-9.362.3414c-.431.0157-.85-.1403-1.166-.4337-.315-.2935-.501-.7003-.517-1.131l-.201-5.4963c-.015-.4307.141-.85.434-1.1656.294-.3157.7-.5018 1.131-.5176z" fill="#ffb942"/><path d="m200.115 22.4876-2.825.1031.319 8.7442 2.825-.1031z" fill="#e08d14"/><path d="m191.191 34.821 9.362-.3415.319 8.7442-9.362.3415c-.431.0157-.85-.1403-1.166-.4337-.316-.2935-.502-.7003-.517-1.131l-.201-5.4973c-.015-.4306.141-.8496.434-1.165.294-.3155.7-.5015 1.131-.5172z" fill="#ffb942"/><path d="m200.553 34.4797-2.825.1031.319 8.7441 2.825-.103z" fill="#e08d14"/><path d="m203.081 23.9644-2.908.106 1.974 54.119 2.908-.106z" fill="#ffdaa9"/></g></svg>